<?xml version="1.0" encoding="utf-8"?>
<!-- Generator: Adobe Illustrator 20.0.0, SVG Export Plug-In . SVG Version: 6.00 Build 0)  -->
<svg version="1.1" id="Layer_1" xmlns="http://www.w3.org/2000/svg" xmlns:xlink="http://www.w3.org/1999/xlink" x="0px" y="0px"
	 viewBox="0 0 170 57" style="enable-background:new 0 0 170 57;" xml:space="preserve">
<style type="text/css">
	.st0{fill:#333333;}
	.st1{fill:#FFCA0C;}
</style>
<g>
	<g>
		<path class="st0" d="M1.4,36.6V1.8c0-0.1,0.1-0.2,0.2-0.2h11.5c2.2,0,4.4,0.7,6.8,1.8c4.5,2.2,6.8,6,6.8,11.4
			c0,5.3-2.2,8.8-6.8,11c-2,1-4.3,1.3-6.8,1.3H6.6c-0.1,0-0.2,0.1-0.2,0.2v9.3c0,0.1-0.1,0.2-0.2,0.2H1.6
			C1.5,36.8,1.4,36.7,1.4,36.6z M6.4,22.6c0,0.1,0.1,0.2,0.2,0.2h6.7c1.4,0,3-0.2,4.6-1c1.9-1,4.1-2.7,4.1-7.2c0-4.4-2-6-4-7.1
			c-1.7-0.9-3.2-0.9-4.6-0.9H6.6c-0.1,0-0.2,0.1-0.2,0.2V22.6z"/>
		<g>
			<path class="st0" d="M103.8,36.6V1.8c0-0.1,0.1-0.2,0.2-0.2h11.5c2.2,0,4.4,0.7,6.8,1.8c4.5,2.2,6.8,6,6.8,11.4
				c0,5.3-2.2,8.8-6.8,11c-2,1-4.3,1.3-6.8,1.3H109c-0.1,0-0.2,0.1-0.2,0.2v9.3c0,0.1-0.1,0.2-0.2,0.2H104
				C103.9,36.8,103.8,36.7,103.8,36.6z M108.8,22.6c0,0.1,0.1,0.2,0.2,0.2h6.7c1.4,0,3-0.2,4.6-1c1.9-1,4.1-2.7,4.1-7.2
				c0-4.4-2-6-4-7.1c-1.7-0.9-3.2-0.9-4.6-0.9H109c-0.1,0-0.2,0.1-0.2,0.2V22.6z"/>
			<path class="st0" d="M150.9,36.7c-4.9,0-9.1-1.7-12.5-5.2c-3.4-3.4-5.2-7.6-5.2-12.4s1.7-9,5.2-12.4c3.5-3.4,7.7-5.2,12.5-5.2
				c4.9,0,9.1,1.7,12.5,5.2c3.4,3.4,5.2,7.6,5.2,12.4c0,4.8-1.7,9-5.2,12.4C159.9,35,155.7,36.7,150.9,36.7z M151.1,6.5
				c-3.5,0-6.5,1.2-9,3.7c-2.5,2.5-3.7,5.5-3.7,8.9s1.3,6.5,3.7,8.9c2.5,2.4,5.5,3.7,9,3.7c3.5,0,6.5-1.2,9-3.7
				c2.5-2.5,3.7-5.5,3.7-8.9s-1.3-6.5-3.7-8.9C157.6,7.7,154.6,6.5,151.1,6.5z"/>
			<path class="st0" d="M71.6,36.8h21.8c0.1,0,0.2-0.1,0.2-0.2l0-4.2c0-0.1-0.1-0.2-0.2-0.2H78.6c-0.1,0-0.2-0.2-0.2-0.3l15-30
				c0.1-0.1,0-0.3-0.2-0.3l-21.8,0c-0.1,0-0.2,0.1-0.2,0.2v4.4c0,0.1,0.1,0.2,0.2,0.2l14.8,0c0.1,0,0.2,0.2,0.2,0.3l-15,29.8
				C71.3,36.6,71.4,36.8,71.6,36.8z"/>
		</g>
		<g>
			<path class="st0" d="M58.9,32.3l2.2,4.4c0,0.1,0.1,0.1,0.2,0.1l4.1,0c0.1,0,0.2-0.2,0.2-0.3L48.4,1.7c-0.1-0.1-0.3-0.1-0.3,0
				L30.9,36.5c-0.1,0.1,0,0.3,0.2,0.3h4.1c0.1,0,0.1,0,0.2-0.1l12.7-25.8c0.1-0.1,0.3-0.1,0.3,0L58.9,32.3z"/>
			<path class="st1" d="M57.1,32.2l-17.7,0c-0.1,0-0.1,0-0.2,0.1l-2.1,4.2c-0.1,0.1,0,0.3,0.2,0.3h21.9c0.1,0,0.2-0.2,0.2-0.3
				l-2.1-4.2C57.3,32.2,57.2,32.2,57.1,32.2z"/>
		</g>
	</g>
	<g>
		<polygon class="st0" points="5.8,55.4 5.8,49.4 4.1,55.4 3.7,55.4 2,49.4 2,55.4 1.5,55.4 1.5,47.3 1.9,47.3 3.9,54.2 5.9,47.3 
			6.4,47.3 6.4,55.4 		"/>
		<path class="st0" d="M1.9,55.3H1.6v-8h0.3l2,7.1l2-7.1h0.3v8H5.9v-6.4l-1.8,6.4H3.8l-1.9-6.4V55.3z"/>
		<polygon class="st0" points="8.9,55.4 8.9,47.3 11.9,47.3 11.9,47.8 9.4,47.8 9.4,51.1 11.9,51.1 11.9,51.6 9.4,51.6 9.4,54.9 
			11.9,54.9 11.9,55.4 		"/>
		<path class="st0" d="M9.3,47.7v3.4h2.5v0.4H9.3V55h2.5v0.4H9v-8h2.9v0.4H9.3z"/>
		<path class="st0" d="M21.7,55.4c-0.2,0-0.4,0-0.6-0.1c-0.2-0.1-0.4-0.2-0.5-0.3c-0.2-0.2-0.3-0.4-0.4-0.6c-0.1-0.3-0.2-0.6-0.2-1
			v-6.1h0.5v6.1c0,0.3,0,0.6,0.1,0.8c0.1,0.2,0.2,0.3,0.3,0.4c0.1,0.1,0.2,0.2,0.4,0.2c0.1,0,0.3,0,0.4,0c0.1,0,0.2,0,0.4,0
			c0.1,0,0.2-0.1,0.4-0.2c0.1-0.1,0.2-0.3,0.3-0.4c0.1-0.2,0.1-0.5,0.1-0.8v-6.1h0.5v6.1c0,0.4-0.1,0.8-0.2,1
			c-0.1,0.3-0.2,0.5-0.4,0.6c-0.2,0.2-0.3,0.3-0.5,0.3C22.1,55.4,21.9,55.4,21.7,55.4z"/>
		<path class="st0" d="M21.7,55.3c-0.2,0-0.4,0-0.5-0.1c-0.2-0.1-0.4-0.1-0.5-0.3c-0.2-0.1-0.3-0.3-0.4-0.6c-0.1-0.3-0.1-0.6-0.1-1
			v-6h0.4v6c0,0.4,0,0.6,0.1,0.8c0.1,0.2,0.2,0.4,0.3,0.5c0.1,0.1,0.2,0.2,0.4,0.2c0.1,0,0.3,0,0.4,0c0.1,0,0.3,0,0.4,0
			c0.1,0,0.3-0.1,0.4-0.2c0.1-0.1,0.2-0.3,0.3-0.5c0.1-0.2,0.1-0.5,0.1-0.8v-6h0.4v6c0,0.4,0,0.7-0.1,1c-0.1,0.3-0.2,0.5-0.4,0.6
			c-0.1,0.1-0.3,0.2-0.5,0.3C22.1,55.3,21.9,55.3,21.7,55.3z"/>
		<path class="st0" d="M26.1,55.4v-8.1h1.4c0.6,0,1.1,0.2,1.4,0.5c0.3,0.4,0.4,0.9,0.4,1.6c0,0.7-0.1,1.2-0.4,1.6
			c-0.1,0.1-0.1,0.2-0.2,0.2c0,0-0.1,0.1-0.1,0.1c0.1,0.1,0.2,0.2,0.3,0.3c0.3,0.4,0.4,0.9,0.4,1.6c0,0.7-0.1,1.2-0.4,1.6
			c-0.3,0.4-0.8,0.5-1.4,0.5H26.1z M27.5,54.9c0.5,0,0.8-0.1,1-0.4c0.2-0.2,0.3-0.7,0.3-1.3c0-0.6-0.1-1-0.3-1.3
			c-0.2-0.2-0.5-0.4-1-0.4h-0.9v3.3H27.5z M27.5,51.1c0.5,0,0.8-0.1,1-0.4c0.2-0.3,0.3-0.7,0.3-1.3c0-0.6-0.1-1-0.3-1.3
			c-0.2-0.2-0.5-0.4-1-0.4h-0.9v3.3H27.5z"/>
		<path class="st0" d="M28.4,51.4c0.2,0.1,0.3,0.2,0.4,0.3c0.3,0.3,0.4,0.9,0.4,1.6c0,0.7-0.1,1.2-0.4,1.6c-0.3,0.3-0.7,0.5-1.3,0.5
			h-0.9h-0.4V55v-7.6h1.3c0.6,0,1.1,0.2,1.3,0.5c0.3,0.3,0.4,0.9,0.4,1.6c0,0.7-0.1,1.2-0.4,1.5c-0.1,0.1-0.1,0.1-0.2,0.2
			C28.5,51.3,28.5,51.3,28.4,51.4z M26.5,51.2h0.9c0.5,0,0.8-0.1,1.1-0.4c0.2-0.3,0.3-0.7,0.3-1.3c0-0.6-0.1-1.1-0.3-1.3
			s-0.6-0.4-1.1-0.4h-0.9V51.2z M27.5,55c0.5,0,0.9-0.1,1.1-0.4c0.2-0.3,0.3-0.7,0.3-1.3c0-0.6-0.1-1.1-0.3-1.3
			c-0.2-0.3-0.6-0.4-1.1-0.4h-0.9V55H27.5z"/>
		<polygon class="st0" points="40.9,55.4 40.9,51.6 38.7,51.6 38.7,55.4 38.1,55.4 38.1,47.3 38.7,47.3 38.7,51.1 40.9,51.1 
			40.9,47.3 41.5,47.3 41.5,55.4 		"/>
		<path class="st0" d="M41.4,47.4v8H41v-3.8h-2.4v3.8h-0.4v-8h0.4v3.8H41v-3.8H41.4z"/>
		<path class="st0" d="M48.2,55.4v-8.1h1.5c0.7,0,1.2,0.2,1.5,0.5c0.3,0.4,0.5,0.9,0.5,1.6c0,0.7-0.2,1.3-0.5,1.6
			c-0.3,0.4-0.8,0.5-1.5,0.5h-1v3.8H48.2z M49.7,51.1c0.5,0,0.9-0.1,1.1-0.4c0.2-0.3,0.3-0.7,0.3-1.3c0-0.6-0.1-1-0.3-1.3
			c-0.2-0.2-0.6-0.4-1.1-0.4h-1v3.3H49.7z"/>
		<path class="st0" d="M48.7,55.3h-0.4v-8h1.4c0.6,0,1.1,0.2,1.4,0.5c0.3,0.3,0.4,0.9,0.4,1.6c0,0.7-0.1,1.2-0.4,1.6
			c-0.3,0.3-0.8,0.5-1.4,0.5h-1.1V55.3z M48.7,51.2h1.1c0.5,0,0.9-0.1,1.1-0.4c0.2-0.3,0.3-0.7,0.3-1.3c0-0.6-0.1-1.1-0.3-1.3
			c-0.2-0.3-0.6-0.4-1.1-0.4h-1.1V51.2z"/>
		<polygon class="st0" points="54,55.4 54,47.3 57,47.3 57,47.8 54.5,47.8 54.5,51.1 57,51.1 57,51.6 54.5,51.6 54.5,54.9 57,54.9 
			57,55.4 		"/>
		<path class="st0" d="M54.5,47.7v3.4H57v0.4h-2.5V55H57v0.4h-2.9v-8H57v0.4H54.5z"/>
		<polygon class="st0" points="59.3,55.4 59.3,47.3 59.8,47.3 59.8,54.9 62.5,54.9 62.5,55.4 		"/>
		<path class="st0" d="M59.4,55.3v-8h0.4V55h2.7v0.4H59.4z"/>
		<path class="st0" d="M66.2,55.4c-0.2,0-0.4,0-0.6-0.1c-0.2-0.1-0.4-0.2-0.5-0.3c-0.2-0.2-0.3-0.4-0.4-0.6c-0.1-0.3-0.2-0.6-0.2-1
			v-6.1h0.5v6.1c0,0.3,0,0.6,0.1,0.8c0.1,0.2,0.2,0.3,0.3,0.4c0.1,0.1,0.2,0.2,0.4,0.2c0.1,0,0.3,0,0.4,0c0.1,0,0.2,0,0.4,0
			c0.1,0,0.2-0.1,0.4-0.2c0.1-0.1,0.2-0.3,0.3-0.4c0.1-0.2,0.1-0.5,0.1-0.8v-6.1h0.5v6.1c0,0.4-0.1,0.8-0.2,1
			c-0.1,0.3-0.2,0.5-0.4,0.6c-0.2,0.2-0.3,0.3-0.5,0.3C66.6,55.4,66.4,55.4,66.2,55.4z"/>
		<path class="st0" d="M66.2,55.3c-0.2,0-0.4,0-0.5-0.1c-0.2-0.1-0.4-0.1-0.5-0.3c-0.2-0.1-0.3-0.3-0.4-0.6c-0.1-0.3-0.1-0.6-0.1-1
			v-6H65v6c0,0.4,0,0.6,0.1,0.8c0.1,0.2,0.2,0.4,0.3,0.5c0.1,0.1,0.2,0.2,0.4,0.2s0.3,0,0.4,0c0.1,0,0.3,0,0.4,0
			c0.1,0,0.3-0.1,0.4-0.2c0.1-0.1,0.2-0.3,0.3-0.5c0.1-0.2,0.1-0.5,0.1-0.8v-6h0.4v6c0,0.4,0,0.7-0.1,1c-0.1,0.3-0.2,0.5-0.4,0.6
			c-0.1,0.1-0.3,0.2-0.5,0.3C66.6,55.3,66.4,55.3,66.2,55.3z"/>
		<polygon class="st0" points="80.1,55.4 77.4,48.9 77.4,55.4 76.9,55.4 76.9,47.3 77.3,47.3 80,53.8 80,47.3 80.5,47.3 80.5,55.4 
					"/>
		<path class="st0" d="M77.4,55.3H77v-8h0.3l2.7,6.8v-6.8h0.4v8h-0.3l-2.8-6.8V55.3z"/>
		<path class="st0" d="M84.7,55.4c-0.6,0-1-0.2-1.3-0.6c-0.3-0.4-0.4-0.9-0.4-1.6v-3.8c0-0.7,0.1-1.2,0.4-1.6
			c0.3-0.4,0.8-0.6,1.3-0.6c0.6,0,1,0.2,1.3,0.6c0.3,0.4,0.4,0.9,0.4,1.6v0.3H86v-0.3c0-0.4,0-0.7-0.1-0.9c-0.1-0.2-0.2-0.4-0.3-0.5
			c-0.1-0.1-0.3-0.2-0.4-0.2c-0.1,0-0.3-0.1-0.4-0.1c-0.1,0-0.3,0-0.4,0.1c-0.1,0-0.3,0.1-0.4,0.2c-0.1,0.1-0.2,0.3-0.3,0.5
			c-0.1,0.2-0.1,0.5-0.1,0.9v3.8c0,0.6,0.1,1,0.3,1.3c0.2,0.3,0.5,0.4,0.9,0.4c0.4,0,0.7-0.1,0.9-0.4c0.2-0.3,0.3-0.7,0.3-1.3v-1
			h-1.7v-0.5h2.3v1.5c0,0.7-0.1,1.2-0.4,1.6C85.8,55.2,85.3,55.4,84.7,55.4z"/>
		<path class="st0" d="M84.7,55.3c-0.6,0-1-0.2-1.3-0.5c-0.3-0.4-0.4-0.9-0.4-1.6v-3.8c0-0.7,0.1-1.2,0.4-1.5
			c0.3-0.4,0.7-0.5,1.3-0.5c0.6,0,1,0.2,1.3,0.5c0.3,0.3,0.4,0.9,0.4,1.5v0.2H86v-0.2c0-0.4,0-0.7-0.1-0.9c-0.1-0.2-0.2-0.4-0.3-0.5
			c-0.1-0.1-0.3-0.2-0.4-0.2c-0.2,0-0.3-0.1-0.4-0.1s-0.3,0-0.4,0.1c-0.2,0-0.3,0.1-0.4,0.2c-0.1,0.1-0.2,0.3-0.3,0.5
			c-0.1,0.2-0.1,0.5-0.1,0.9v3.8c0,0.6,0.1,1,0.3,1.3c0.2,0.3,0.5,0.4,1,0.4c0.4,0,0.8-0.1,1-0.4c0.2-0.3,0.3-0.7,0.3-1.3v-1h-1.7
			v-0.4h2.1v1.4c0,0.7-0.1,1.2-0.4,1.6C85.7,55.2,85.3,55.3,84.7,55.3z"/>
		<path class="st0" d="M94.7,55.4c-0.6,0-1-0.2-1.3-0.5c-0.3-0.3-0.4-0.8-0.4-1.5v-0.3h0.5v0.3c0,0.3,0,0.6,0.1,0.8
			c0.1,0.2,0.2,0.3,0.3,0.4c0.1,0.1,0.2,0.2,0.4,0.2c0.1,0,0.3,0,0.4,0c0.4,0,0.6-0.1,0.8-0.3c0.2-0.2,0.3-0.6,0.3-1.2v-6.1h0.5v6.1
			c0,0.7-0.1,1.2-0.4,1.5C95.6,55.2,95.2,55.4,94.7,55.4z"/>
		<path class="st0" d="M94.7,55.3c-0.5,0-0.9-0.2-1.2-0.5c-0.3-0.3-0.4-0.8-0.4-1.4v-0.2h0.4v0.2c0,0.4,0,0.6,0.1,0.8
			c0.1,0.2,0.2,0.4,0.3,0.5c0.1,0.1,0.2,0.2,0.4,0.2c0.1,0,0.3,0,0.4,0c0.4,0,0.7-0.1,0.9-0.4c0.2-0.3,0.3-0.7,0.3-1.2v-6h0.4v6
			c0,0.6-0.1,1.1-0.4,1.4C95.6,55.2,95.2,55.3,94.7,55.3z"/>
		<path class="st0" d="M105.1,55.4v-8.1h1.4c0.7,0,1.1,0.2,1.5,0.6c0.3,0.4,0.5,0.9,0.5,1.6v3.7c0,0.7-0.2,1.3-0.5,1.6
			c-0.3,0.4-0.8,0.6-1.5,0.6H105.1z M106.6,54.9c0.5,0,0.8-0.1,1.1-0.4c0.2-0.3,0.3-0.7,0.3-1.3v-3.7c0-0.6-0.1-1-0.3-1.3
			c-0.2-0.3-0.6-0.4-1.1-0.4h-0.9v7.1H106.6z"/>
		<path class="st0" d="M106.6,55.3h-1.4v-8h1.4c0.6,0,1.1,0.2,1.4,0.6c0.3,0.3,0.4,0.9,0.4,1.6v3.7c0,0.7-0.1,1.2-0.4,1.6
			C107.7,55.1,107.2,55.3,106.6,55.3z M105.6,55h1c0.5,0,0.9-0.1,1.1-0.4c0.2-0.3,0.3-0.7,0.3-1.4v-3.7c0-0.6-0.1-1.1-0.3-1.4
			c-0.2-0.3-0.6-0.4-1.1-0.4h-1V55z"/>
		<rect x="111.1" y="47.3" class="st0" width="0.5" height="8.1"/>
		<path class="st0" d="M111.2,55.3v-8h0.4v8H111.2z"/>
		<path class="st0" d="M118.3,55.4v-8.1h1.5c0.7,0,1.2,0.2,1.5,0.5c0.3,0.4,0.5,0.9,0.5,1.6c0,0.7-0.2,1.3-0.5,1.6
			c-0.3,0.4-0.8,0.5-1.5,0.5h-1v3.8H118.3z M119.8,51.1c0.5,0,0.9-0.1,1.1-0.4c0.2-0.3,0.3-0.7,0.3-1.3c0-0.6-0.1-1-0.3-1.3
			c-0.2-0.2-0.6-0.4-1.1-0.4h-1v3.3H119.8z"/>
		<path class="st0" d="M118.8,55.3h-0.4v-8h1.4c0.6,0,1.1,0.2,1.4,0.5c0.3,0.3,0.4,0.9,0.4,1.6c0,0.7-0.1,1.2-0.4,1.6
			c-0.3,0.3-0.8,0.5-1.4,0.5h-1.1V55.3z M118.8,51.2h1.1c0.5,0,0.9-0.1,1.1-0.4c0.2-0.3,0.3-0.7,0.3-1.3c0-0.6-0.1-1.1-0.3-1.3
			c-0.2-0.3-0.6-0.4-1.1-0.4h-1.1V51.2z"/>
		<polygon class="st0" points="124.1,55.4 124.1,47.3 127.1,47.3 127.1,47.8 124.6,47.8 124.6,51.1 127.1,51.1 127.1,51.6 
			124.6,51.6 124.6,54.9 127.1,54.9 127.1,55.4 		"/>
		<path class="st0" d="M124.5,47.7v3.4h2.5v0.4h-2.5V55h2.5v0.4h-2.9v-8h2.9v0.4H124.5z"/>
		<polygon class="st0" points="132.6,55.4 130,48.9 130,55.4 129.4,55.4 129.4,47.3 129.9,47.3 132.5,53.8 132.5,47.3 133,47.3 
			133,55.4 		"/>
		<path class="st0" d="M129.9,55.3h-0.4v-8h0.3l2.7,6.8v-6.8h0.4v8h-0.3l-2.8-6.8V55.3z"/>
		<path class="st0" d="M137,55.4c-0.6,0-1-0.2-1.3-0.5c-0.3-0.3-0.4-0.8-0.4-1.5v-0.3h0.5v0.3c0,0.3,0,0.6,0.1,0.8
			c0.1,0.2,0.2,0.3,0.3,0.4c0.1,0.1,0.2,0.2,0.4,0.2c0.1,0,0.3,0,0.4,0c0.4,0,0.6-0.1,0.8-0.3c0.2-0.2,0.3-0.6,0.3-1.2v-6.1h0.5v6.1
			c0,0.7-0.1,1.2-0.4,1.5C138,55.2,137.6,55.4,137,55.4z"/>
		<path class="st0" d="M137,55.3c-0.5,0-0.9-0.2-1.2-0.5c-0.3-0.3-0.4-0.8-0.4-1.4v-0.2h0.4v0.2c0,0.4,0,0.6,0.1,0.8
			c0.1,0.2,0.2,0.4,0.3,0.5c0.1,0.1,0.2,0.2,0.4,0.2s0.3,0,0.4,0c0.4,0,0.7-0.1,0.9-0.4c0.2-0.3,0.3-0.7,0.3-1.2v-6h0.4v6
			c0,0.6-0.1,1.1-0.4,1.4C137.9,55.2,137.5,55.3,137,55.3z"/>
		<path class="st0" d="M142.7,55.4c-0.2,0-0.4,0-0.6-0.1c-0.2-0.1-0.4-0.2-0.5-0.3c-0.2-0.1-0.3-0.4-0.4-0.6c-0.1-0.3-0.2-0.6-0.2-1
			v-6.1h0.5v6.1c0,0.3,0,0.6,0.1,0.8c0.1,0.2,0.2,0.3,0.3,0.4c0.1,0.1,0.2,0.2,0.4,0.2c0.1,0,0.3,0,0.4,0c0.1,0,0.2,0,0.4,0
			c0.1,0,0.2-0.1,0.4-0.2c0.1-0.1,0.2-0.3,0.3-0.4c0.1-0.2,0.1-0.5,0.1-0.8v-6.1h0.5v6.1c0,0.4-0.1,0.8-0.2,1
			c-0.1,0.3-0.2,0.5-0.4,0.6c-0.2,0.2-0.3,0.3-0.5,0.3C143.1,55.4,142.9,55.4,142.7,55.4z"/>
		<path class="st0" d="M142.7,55.3c-0.2,0-0.4,0-0.5-0.1c-0.2-0.1-0.4-0.1-0.5-0.3c-0.2-0.1-0.3-0.3-0.4-0.6c-0.1-0.3-0.1-0.6-0.1-1
			v-6h0.4v6c0,0.4,0,0.6,0.1,0.8c0.1,0.2,0.2,0.4,0.3,0.5c0.1,0.1,0.2,0.2,0.4,0.2c0.1,0,0.3,0,0.4,0c0.1,0,0.3,0,0.4,0
			c0.1,0,0.3-0.1,0.4-0.2c0.1-0.1,0.2-0.3,0.3-0.5c0.1-0.2,0.1-0.5,0.1-0.8v-6h0.4v6c0,0.4,0,0.7-0.1,1c-0.1,0.3-0.2,0.5-0.4,0.6
			c-0.1,0.1-0.3,0.2-0.5,0.3C143,55.3,142.9,55.3,142.7,55.3z"/>
		<polygon class="st0" points="153.3,55.4 153.3,47.3 153.8,47.3 153.8,54.9 156.5,54.9 156.5,55.4 		"/>
		<path class="st0" d="M153.4,55.3v-8h0.4V55h2.7v0.4H153.4z"/>
		<polygon class="st0" points="168.2,55.4 165.5,48.9 165.5,55.4 165,55.4 165,47.3 165.4,47.3 168.1,53.8 168.1,47.3 168.6,47.3 
			168.6,55.4 		"/>
		<path class="st0" d="M165.5,55.3h-0.4v-8h0.3l2.7,6.8v-6.8h0.4v8h-0.3l-2.8-6.8V55.3z"/>
		<path class="st0" d="M35.5,55.4l-1.6-6.9c-0.3,1.1-1.1,4.5-1.6,6.9l0,0.1h-0.5l2-8.1H34l2,8.1H35.5z"/>
		<path class="st0" d="M32.1,55.3c0.7-2.9,1.7-7.2,1.7-7.2l1.7,7.2h0.4l-1.9-8h-0.1h0h0h0h0h0h-0.1l-1.9,8H32.1z"/>
		<path class="st0" d="M74.2,55.4l-1.6-6.9c-0.3,1.1-1.1,4.5-1.6,6.9l0,0.1h-0.5l2-8.1h0.4l2,8.1H74.2z"/>
		<path class="st0" d="M70.9,55.3c0.7-2.9,1.7-7.2,1.7-7.2l1.7,7.2h0.4l-1.9-8h-0.1h0h0h0h0h0h-0.1l-1.9,8H70.9z"/>
		<path class="st0" d="M102.4,55.4l-1.6-6.9c-0.3,1.1-1.1,4.5-1.6,6.9l0,0.1h-0.5l2-8.1h0.4l2,8.1H102.4z"/>
		<path class="st0" d="M99.1,55.3c0.7-2.9,1.7-7.2,1.7-7.2l1.7,7.2h0.4l-1.9-8h-0.1h0h0h0h0h0h-0.1l-1.9,8H99.1z"/>
		<path class="st0" d="M150.7,55.4l-1.6-6.9c-0.3,1.1-1.1,4.5-1.6,6.9l0,0.1h-0.5l2-8.1h0.4l2,8.1H150.7z"/>
		<path class="st0" d="M147.3,55.3c0.7-2.9,1.7-7.2,1.7-7.2l1.7,7.2h0.4l-1.9-8h-0.1h0h0h0h0h0h-0.1l-1.9,8H147.3z"/>
		<path class="st0" d="M162.3,55.4l-1.6-6.9c-0.3,1.1-1.1,4.5-1.6,6.9l0,0.1h-0.5l2-8.1h0.4l2,8.1H162.3z"/>
		<path class="st0" d="M158.9,55.3c0.7-2.9,1.7-7.2,1.7-7.2l1.7,7.2h0.4l-1.9-8h-0.1h0h0h0h0h0h-0.1l-1.9,8H158.9z"/>
		<path class="st0" d="M17.2,55.4l-1.5-3.7h-0.9v3.7h-0.5v-8.1h1.5c0.7,0,1.1,0.2,1.5,0.5c0.3,0.4,0.5,0.9,0.5,1.7
			c0,0.7-0.2,1.3-0.5,1.6c-0.1,0.2-0.3,0.3-0.5,0.4c0,0-0.1,0.1-0.5,0.1l1.5,3.8H17.2z M15.8,51.1c0.5,0,0.9-0.1,1.1-0.4
			c0.2-0.3,0.3-0.7,0.3-1.3c0-0.6-0.1-1-0.3-1.3c-0.2-0.2-0.6-0.4-1.1-0.4h-1v3.3H15.8z"/>
		<path class="st0" d="M16.2,51.6c0.4-0.1,0.5-0.1,0.5-0.1c0.2-0.1,0.3-0.2,0.5-0.4c0.3-0.3,0.4-0.9,0.4-1.6c0-0.7-0.1-1.3-0.4-1.6
			c-0.3-0.3-0.8-0.5-1.4-0.5h-1.4v8h0.4v-3.7h0.9h0.2l1.5,3.7h0.4L16.2,51.6z M15.6,51.2h-0.9v-3.5h1.1c0.5,0,0.9,0.1,1.1,0.4
			c0.2,0.3,0.3,0.7,0.3,1.3c0,0.6-0.1,1.1-0.4,1.3c-0.2,0.3-0.6,0.4-1.1,0.4H15.6z"/>
	</g>
</g>
</svg>
